/* XPM */
static char *_e570b5efc864ee5c82e3efc3ccf39f8HLGaNl3uOZs47zKA[] = {
/* columns rows colors chars-per-pixel */
"32 32 146 2 ",
"   c #440002",
".  c #520203",
"X  c #5F0E0B",
"o  c #5F150D",
"O  c #620302",
"+  c #64090B",
"@  c #6C0C0B",
"#  c #770708",
"$  c #730D0E",
"%  c #740E10",
"&  c #631C13",
"*  c #7A1616",
"=  c #7A1718",
"-  c #622E12",
";  c #2F4321",
":  c #2F4927",
">  c #324E2B",
",  c #36522B",
"<  c #38562E",
"1  c #3A582E",
"2  c #3C5B30",
"3  c #4A4A30",
"4  c #594E31",
"5  c #405E31",
"6  c #654221",
"7  c #694026",
"8  c #6B4A2C",
"9  c #78462D",
"0  c #6C512F",
"q  c #6E5034",
"w  c #7F593F",
"e  c #466534",
"r  c #486736",
"t  c #496B37",
"y  c #4B6E38",
"u  c #4E713B",
"i  c #7E623A",
"p  c #515942",
"a  c #7D5842",
"s  c #537B40",
"d  c #656944",
"f  c #76654B",
"g  c #7A7355",
"h  c #8B0707",
"j  c #820908",
"k  c #950100",
"l  c #9D0909",
"z  c #820E10",
"x  c #901011",
"c  c #941618",
"v  c #A90507",
"b  c #B50203",
"n  c #BE0100",
"m  c #BB0A0A",
"M  c #A51616",
"N  c #A11719",
"B  c #B21616",
"V  c #B11719",
"C  c #B31A1C",
"Z  c #B01E21",
"A  c #882123",
"S  c #9E3233",
"D  c #AA2326",
"F  c #B22629",
"G  c #B22829",
"H  c #B43338",
"J  c #CB0404",
"K  c #D70406",
"L  c #DB1214",
"P  c #E51D20",
"I  c #C4292C",
"U  c #E02B2D",
"Y  c #80683C",
"T  c #E03E42",
"R  c #815741",
"E  c #855C44",
"W  c #B14F4E",
"Q  c #B3504F",
"!  c #AB5252",
"~  c #856045",
"^  c #8A644C",
"/  c #8C6C4B",
"(  c #8F7347",
")  c #8D6757",
"_  c #8C6B51",
"`  c #926551",
"'  c #966D59",
"]  c #8A7057",
"[  c #9B795A",
"{  c #807B60",
"}  c #8B7D67",
"|  c #967D67",
" . c #C04547",
".. c #D04448",
"X. c #CA5658",
"o. c #D25355",
"O. c #DB5559",
"+. c #E7494C",
"@. c #E95756",
"#. c #C67173",
"$. c #D47879",
"%. c #578043",
"&. c #598245",
"*. c #5B8649",
"=. c #5C8949",
"-. c #66934E",
";. c #868560",
":. c #9C816C",
">. c #9D8472",
",. c #A38365",
"<. c #A3846C",
"1. c #A18A79",
"2. c #AB8D7C",
"3. c #B08974",
"4. c #A19888",
"5. c #A89E8C",
"6. c #B59B89",
"7. c #9BA786",
"8. c #ADA58F",
"9. c #BAA08E",
"0. c #ABA894",
"q. c #B1AE97",
"w. c #B7B09F",
"e. c #D98B8D",
"r. c #EF8B8D",
"t. c #F69597",
"y. c #C5A994",
"u. c #FC9FA0",
"i. c #C7B4A5",
"p. c #C3BAA8",
"a. c #D1BBAC",
"s. c #CABFB1",
"d. c #EBA2A4",
"f. c #F1B5B5",
"g. c #BFC2A7",
"h. c #E6CDBC",
"j. c #DFCFC8",
"k. c #E2CCC3",
"l. c #F3CBCD",
"z. c #EDD6D6",
"x. c #EEDED6",
"c. c #F7E4E5",
"v. c #F6EBE3",
"b. c #FEEBEB",
"n. c #FDF3F3",
"m. c #FFFEFE",
/* pixels */
"y y y 1 e u 5 e 5 5 -.-.u 5 5 u y t y 2 5 5 5 1 t > &.%.u , , y ",
"y y e 5 ; s %.5 5 &.e ; e e 5 1 y y 2 2 : &.u y -.&.%.: y y y e ",
"y u 5 5 5 s -.s -.%.e < -.-.-.u &.&.u 2 < %.*.1 1 =.s e =.-.u 2 ",
"y 1 5 -.-., s s =.u ; %.-.s t u 1 s -.-.e u &.s 1 u > &.=.u e s ",
"y y 5 s s u s r s < y s u < t u 1 < s -.-., r , e u < -.t : 5 y ",
"y y 5 , s e u y y 1 y s < t y 1 &.s , s -.r 5 5 u e 1 u , e 5 1 ",
"y y 5 5 e y y y y 1 u u 1 y u 1 u %.s , s r 5 u y 2 > 1 y e 5 5 ",
"5 5 y s 2 1 y 1 2 2 =.=.%.1 u 2 u u u 1 y y 1 s 5 5 e 1 -.-.y 5 ",
"s u &.%.u e 2 y s 2 1 t u 5 u 1 y e 1 t t 1 5 %.1 t e %.> &.-.u ",
"e %.&.> u 1 2 s =.y < t u -.%.e 1 1 e t 1 u 2 %.u u &.=.5 t &.%.",
"2 &.t , =.-.u y u u 1 y < -.-.e > 1 2 2 > y 2 y 2 < u =.&., y e ",
"1 t : &.-.u < < y u -.-.5 u -.r 2 2 5 5 t y 5 5 , 5 1 u -.1 u y ",
", , 5 s s , 5 5 1 < u -.-.1 s u 5 5 y y y y y 5 5 5 2 < u 1 1 t ",
"y 1 u s , y 5 5 1 y < s s l G +.+.+.P J y y t y y y 5 5 e 5 5 1 ",
", r s 5 y y y 5 2 s y z l T v.z.+.+.+.+.K 5 y y y y y 5 y y 1 5 ",
"5 y 5 5 y y y e 5 1   l J O.n.c.U L +.x.b.L 5 y 1 1 5 5 y y y 5 ",
"5 r 5 y 2 5 5 1 e   z m N M D H G F #.m.m.n.n 1 y u 5 5 5 5 u t ",
"5 5 -.-.1 5 u u   z v c N V V B Z F o.X.m.+.@.b y -.-., 1 1 5 5 ",
"s -.-.: 1 5 r u . h % x C G ..m.m.@.o.I  .X.+.K b -.s 1 -.%.s u ",
"e -.s s *.s s . # % e.m.r.B u.b.m.t.C I ..$.X.+.b s , -.-.u , t ",
"e s , -.-.s , . O % l.c.W S S f.d.Q W X.e.m.m.! k , %.%.s , 2 1 ",
"e , s s s , 1 1 + @ % = A A z * $ @ @ @ O j % $ 2 1 %.u , =.1 1 ",
"5 1 u s , u 5 5 e e 2 2 O O @ X o & o @ < 2 y y 1 e 1 e u t 2 5 ",
"5 r 5 u 5 5 5 5 r 2 s s - 9 Y i i ( ( ) y 2 y y 2 %.-.s e e t u ",
"5 5 > 5 5 y 5 5 5 y &.; 8 ` ,.[ | [ | 1.-.*.1 5 2 -.%., e 2 5 u ",
"t 5 5 5 y y y 5 5 *.s 8 ^ <.:.y.h.k.y.6.| -.-.< 1 -.u 2 2 -.5 t ",
"u y 5 y y t y y e r q ^ _ | 6.v.c.v.j.y.3.| -.5 5 u 1 -.-.s , 5 ",
"5 t y y y y y y 1 q E R ~ >.9.j.w.a.q.0.5.6.{ s 5 s u %.s , y 5 ",
"y y y y y y y y e q ~ / / | <.i.h.x.p.s.g.4.;.r 5 1 u s , u 2 y ",
"1 t y y y y y 5 2 6 E ` :.] ' 9.2.a.k.q.7.7.} s u u 1 u 2 2 2 y ",
"y y y y y y y 1 , 6 0 p ' a f E | g 8.p.0.{ g 1 2 2 1 y y > t 2 ",
"y y y y y y y 5 , 0 9 d 0 4 0 8 7 8 w f f 3 p 1 1 1 < y y , e 5 "
};
