/* XPM */
static char * exit_xpm[] = {
"32 32 65 1",
" 	c None",
".	c #5D5034",
"+	c #5B4B32",
"@	c #605436",
"#	c #4A442B",
"$	c #5A4B33",
"%	c #433B28",
"&	c #464129",
"*	c #28271B",
"=	c #2A281B",
"-	c #2B291C",
";	c #50452A",
">	c #6B5B36",
",	c #E3C446",
"'	c #8E7A4D",
")	c #252716",
"!	c #3A3222",
"~	c #493E2C",
"{	c #594932",
"]	c #6B5D37",
"^	c #8F7C4D",
"/	c #493D2B",
"(	c #51472A",
"_	c #333229",
":	c #343229",
"<	c #F1EA81",
"[	c #483D2B",
"}	c #C8C8B4",
"|	c #89896B",
"1	c #36322A",
"2	c #4A3E2C",
"3	c #2A2B25",
"4	c #444433",
"5	c #454534",
"6	c #2B2D27",
"7	c #383223",
"8	c #51472B",
"9	c #232517",
"0	c #6B5D36",
"a	c #443F29",
"b	c #F8F3AA",
"c	c #393524",
"d	c #373022",
"e	c #373222",
"f	c #5E5136",
"g	c #4C432E",
"h	c #4B422D",
"i	c #373021",
"j	c #4B432D",
"k	c #413927",
"l	c #373122",
"m	c #49432B",
"n	c #3D3826",
"o	c #342F21",
"p	c #2D291D",
"q	c #605136",
"r	c #49432A",
"s	c #484129",
"t	c #5A4930",
"u	c #433C28",
"v	c #443D28",
"w	c #45412A",
"x	c #5D5133",
"y	c #5B4F32",
"z	c #4B442D",
".+@#$$$$%$+++$$@@@$$$$&$$%$$$$++",
"*=======-=============-==-======",
"$=;>,,,,';),,,,,,,,,,);>,,,,';!~",
"{=);],,];),,,,,,,,,,,,);],,^;)!/",
"{=,)(_:(),<<<,,,<<,,<<,)(_:;),![",
"$=,,:}|1<<<<<<<<<<<<<<<<:}|1,,!2",
"%-,,3456<<<<<<<<<<<<<<<<3456,,!7",
"{=,'899<<<<<<<<<<<<<<<<<<9980,!/",
"{=';)<<<<<<<<<<<<<<<<<<<<<<);>!/",
"a-;),<<<<<<<<bb<bb<<<<<<<<<,);!c",
"{=),<<<<<<<bbbbbbbbb<<<<<<<<,)!/",
"$=,,<<<<<<<bbbbbbbbbbb<<<<<<,,d2",
"$=,,<<<<<<bbbbbbbbbbbbb<<<<<,,d~",
"$=,,,<<<<bbbbbbbbbbbbbb<<<<<,,e~",
"f=,,,<<<<bbbbbbbbbbbbb<<<<<,,,!g",
".=,,,<<<<bbbbbbbbbbbbbb<<<<,,,!h",
".=,,,<<<<<bbbbbbbbbbbbb<<<<,,,ij",
"{=,,,<<<<bbbbbbbbbbbbbb<<<<<,,i[",
"$=,,<<<<<bbbbbbbbbbbbbb<<<<<,,!2",
"$=,,<<<<<bbbbbbbbbbbbb<<<<<<,,!2",
"$=,,,<<<<<<bbbbbbbbbb<<<<<<<,,!~",
"{=>,<<<<<<<<bbbbbbbbb<<<<<<<,'![",
"{=;>,<<<<<<<<<<bbb<<<<<<<<<,';!/",
"k-);]<<<<<<<<<<<<<<<<<<<<<<^;)!l",
"{=,)(_:<<<<<<<<<<<<<<<<<<_:;),!/",
"{=,,:}|1<<<<<<<<<<<<<<<<:}|1,,!/",
"{=,,3456<<<<<<<<<<<<<<<<3456,,!/",
"{=,'89980,<<,,,<<<,,<<,'89980,d/",
"m=';),,);>,,,,,,,,,,,,';),,);>dn",
"f=;),,,,);>,,,,,,,,,,';),,,,);eg",
"o!e!!!!!!!!!!!d!!ie!!!!!!!!!!!!p",
"{fq@rst$au%kvw$$#$@xyrz#$vk%ua$["};
