/* XPM */
static char * floor_xpm[] = {
"32 32 44 1",
" 	c None",
".	c #4B6E38",
"+	c #3B5B30",
"@	c #405E31",
"#	c #4E6F3B",
"$	c #456334",
"%	c #66934E",
"&	c #63904D",
"*	c #3A582E",
"=	c #466634",
"-	c #344F28",
";	c #5A8345",
">	c #578044",
",	c #4E713B",
"'	c #37532C",
")	c #324E2B",
"!	c #2F4221",
"~	c #588045",
"{	c #466436",
"]	c #3C5B30",
"^	c #2F4927",
"/	c #537B40",
"(	c #63924D",
"_	c #496B37",
":	c #36522B",
"<	c #3C5B2F",
"[	c #426232",
"}	c #5C8949",
"|	c #3C5C30",
"1	c #537B42",
"2	c #486736",
"3	c #567C42",
"4	c #38522C",
"5	c #37512B",
"6	c #578042",
"7	c #466434",
"8	c #577C42",
"9	c #466334",
"0	c #36512B",
"a	c #324D2B",
"b	c #38562E",
"c	c #2F4623",
"d	c #314B29",
"e	c #5B8649",
"...+@#@$@@%&#@@....@@@@*=-;>,').",
"..=@!~~@@~$!{=@@..@]^;/=(;;^_.#{",
"..@@@/%/(~$:%%&#~~#]:;;<<;/[;%/]",
".@@%%://}/!~%/..*/%%|/;1</^;;/@/",
"..@//#/23:.//:..*:/%%:24@/5%_^@.",
"..@:/=,..*,/:..*~6:/%{@@.@]/:7@*",
"..@@{....*,/*..|,63:/2@..@)*#{@@",
"@@.8]*#*||6}3*,|###]..]/@@{*&%.@",
"3#;>/||./|*=.],*#=*=.*@~*=96^;%,",
"$;;^.*|/}.*=/%3{**=.*#*~#/;;[_;~",
"<;_0;%/...|#:%%$a*|*a.].]:/;;^_9",
"*_^;%/:*./%%]/%=]@@@..@@'|:/%*/#",
"::|//:@@*:/%%:/#@@.....@@@@:/b*=",
".*#/:.@@*.://]/@@.........@@@@@@",
":=~@...@@3#/:/@@.....@.....@..*@",
"@.@@...=@b|.=.@@.@@...@.**@@...@",
"@.@.+$@*@*~$+=@@@@|]@.@*.,@@@@..",
"@*%&*]#,@~~!|..@).&/$$$*.%%:**@@",
"/%%c*$=#'~$:~~/.*%/:=|||,%/*%//.",
"=%//~~/*]/:~~$:#.%/|*%&||/:%%/:.",
"=/:%%/:|.////:@#=/:%%/:/*:///:**",
"=:~//:***/=/:|{~*:=//c@@@*3/:}b*",
"@|#/:#@@$$]]=d=~#*=/:]..]=*=#.@@",
"@{].$@@@{*~/*,]|],{##]#.@/&/==..",
"@@)@@.@@@#~!|#,||,~*&e*@|%/:=@@.",
".@@@...@@e/=~%//b#.b:%%'b%/]*%@.",
"..@.....{2:%%/:],/%%|/%$@/:%%/:@",
"@.......*c=//:#*~:/%%:/#@/#//:.@",
"........$@//:#@@@]://#/.@b,/:#].",
"@......@@,|}}@@@@||:/||,/#b/]@@.",
".......@)..}}@@....|*@|**b*..)$@",
".......@)..}}@@....|*@|**b*..)$@"};
