/* XPM */
static char * wall_xpm[] = {
"32 32 518 2",
"  	c #272521",
". 	c #7A5E3D",
"+ 	c #A8763B",
"@ 	c #EDB675",
"# 	c #E0A056",
"$ 	c #4C443A",
"% 	c #EEB775",
"& 	c #AA773B",
"* 	c #AC783B",
"= 	c #80613E",
"- 	c #81623E",
"; 	c #EAA657",
"> 	c #F3BA76",
", 	c #F0B775",
"' 	c #7D603D",
") 	c #B37C3C",
"! 	c #B47D3C",
"~ 	c #B07A3C",
"{ 	c #9F6E36",
"] 	c #9D6D36",
"^ 	c #AB783B",
"/ 	c #F6AD59",
"( 	c #8E6A40",
"_ 	c #453A2D",
": 	c #443A2D",
"< 	c #FFCC7B",
"[ 	c #F3AB58",
"} 	c #F7BC77",
"| 	c #E1A156",
"1 	c #F1B976",
"2 	c #86663F",
"3 	c #8F6B41",
"4 	c #5E503E",
"5 	c #483C2D",
"6 	c #D18D3F",
"7 	c #C8883F",
"8 	c #BC813D",
"9 	c #4E463B",
"0 	c #4D453A",
"a 	c #795D3C",
"b 	c #4B4339",
"c 	c #AA773A",
"d 	c #EBA657",
"e 	c #FEB159",
"f 	c #493D2E",
"g 	c #53432F",
"h 	c #5A4730",
"i 	c #594630",
"j 	c #4F412F",
"k 	c #FFD37C",
"l 	c #FFC278",
"m 	c #E5A356",
"n 	c #DFA055",
"o 	c #E29F41",
"p 	c #E3A041",
"q 	c #E1A055",
"r 	c #F6BB76",
"s 	c #FFC779",
"t 	c #D48D3F",
"u 	c #B07D44",
"v 	c #5E4A31",
"w 	c #644D32",
"x 	c #624C32",
"y 	c #584630",
"z 	c #E39540",
"A 	c #FFD17C",
"B 	c #4E453A",
"C 	c #7A5E3C",
"D 	c #785C3C",
"E 	c #4C4439",
"F 	c #FCAF58",
"G 	c #4D3F2E",
"H 	c #624B32",
"I 	c #845D35",
"J 	c #BB7C41",
"K 	c #B17841",
"L 	c #755634",
"M 	c #FFD860",
"N 	c #FFB85A",
"O 	c #EEA856",
"P 	c #E0A055",
"Q 	c #E4A342",
"R 	c #E5A443",
"S 	c #E4A443",
"T 	c #F5AB57",
"U 	c #FFDA7D",
"V 	c #FFAA44",
"W 	c #825C35",
"X 	c #A96C37",
"Y 	c #C48042",
"Z 	c #976536",
"` 	c #6E5233",
" .	c #F69E42",
"..	c #FDC076",
"+.	c #7B5E3C",
"@.	c #775B3B",
"#.	c #A77539",
"$.	c #EFA756",
"%.	c #FFBB5A",
"&.	c #604B31",
"*.	c #AF7741",
"=.	c #FFFFFF",
"-.	c #785734",
";.	c #FFD25E",
">.	c #FFB459",
",.	c #E3A645",
"'.	c #7B5D3C",
").	c #4B4338",
"!.	c #A8763A",
"~.	c #E5A847",
"{.	c #FFE261",
"].	c #8F6136",
"^.	c #715433",
"/.	c #D89B42",
"(.	c #FCAD57",
"_.	c #7C5E3C",
":.	c #755A3A",
"<.	c #A87439",
"[.	c #F5AB56",
"}.	c #89663E",
"|.	c #FFB15F",
"1.	c #765734",
"2.	c #FFD15D",
"3.	c #E3AA48",
"4.	c #80613C",
"5.	c #4D4439",
"6.	c #7B5E3B",
"7.	c #B17A3A",
"8.	c #CB873D",
"9.	c #FFA041",
"0.	c #855D35",
"a.	c #875E35",
"b.	c #564530",
"c.	c #D4943E",
"d.	c #745939",
"e.	c #A57439",
"f.	c #42382C",
"g.	c #52422F",
"h.	c #C4935A",
"i.	c #E1AC4B",
"j.	c #8E683D",
"k.	c #504639",
"l.	c #81613B",
"m.	c #BF823C",
"n.	c #E2AE4B",
"o.	c #7D5A34",
"p.	c #956C3F",
"q.	c #D2933F",
"r.	c #7A5D3A",
"s.	c #725839",
"t.	c #D99951",
"u.	c #41372C",
"v.	c #594B37",
"w.	c #A88557",
"x.	c #E1AF4D",
"y.	c #9F723F",
"z.	c #554939",
"A.	c #544839",
"B.	c #D28A3C",
"C.	c #FFAF42",
"D.	c #A26937",
"E.	c #835C35",
"F.	c #755B3C",
"G.	c #4E402F",
"H.	c #775B3A",
"I.	c #705638",
"J.	c #D3964F",
"K.	c #ECB26E",
"L.	c #544330",
"M.	c #6C5133",
"N.	c #996636",
"O.	c #885F35",
"P.	c #DFAB4B",
"Q.	c #D78B3C",
"R.	c #705333",
"S.	c #DBA74A",
"T.	c #D8A248",
"U.	c #554430",
"V.	c #4C3F2E",
"W.	c #44392D",
"X.	c #3E362B",
"Y.	c #735838",
"Z.	c #6E5537",
"`.	c #CC914D",
" +	c #DFA96B",
".+	c #CC9240",
"++	c #5E4E39",
"@+	c #D49E47",
"#+	c #D8A54A",
"$+	c #524636",
"%+	c #534637",
"&+	c #4B3E2E",
"*+	c #725A3B",
"=+	c #9D703F",
"-+	c #855E35",
";+	c #FFA43F",
">+	c #9F713E",
",+	c #D5A046",
"'+	c #D39C45",
")+	c #D19943",
"!+	c #CF9542",
"~+	c #3E352B",
"{+	c #3B342B",
"]+	c #6F5637",
"^+	c #6D5336",
"/+	c #C88F4C",
"(+	c #D8A468",
"_+	c #C68A3C",
":+	c #C98F3F",
"<+	c #504436",
"[+	c #AD7333",
"}+	c #D29C46",
"|+	c #FFC156",
"1+	c #FFF47A",
"2+	c #986D3F",
"3+	c #916A3E",
"4+	c #5A4C37",
"5+	c #4E4335",
"6+	c #4D4235",
"7+	c #825F39",
"8+	c #5B4C37",
"9+	c #69553A",
"0+	c #71593B",
"a+	c #DAA94C",
"b+	c #D8A64B",
"c+	c #BF7F39",
"d+	c #7E5E39",
"e+	c #956630",
"f+	c #D19743",
"g+	c #CE9441",
"h+	c #CD9240",
"i+	c #C88B3D",
"j+	c #6A5235",
"k+	c #C1843A",
"l+	c #C2863C",
"m+	c #C38A3D",
"n+	c #C78E3F",
"o+	c #C99241",
"p+	c #4F4435",
"q+	c #CD9844",
"r+	c #ECA14F",
"s+	c #FFBF6E",
"t+	c #FFB252",
"u+	c #FFBB53",
"v+	c #D6A54A",
"w+	c #D5A349",
"x+	c #D6A348",
"y+	c #463E33",
"z+	c #483F33",
"A+	c #AA7336",
"B+	c #F0A34F",
"C+	c #F5A650",
"D+	c #AC7436",
"E+	c #A26E35",
"F+	c #6F5536",
"G+	c #443C33",
"H+	c #CD9643",
"I+	c #CB9341",
"J+	c #CA9141",
"K+	c #3C342B",
"L+	c #C58A3E",
"M+	c #6D5435",
"N+	c #685033",
"O+	c #BD823A",
"P+	c #CF924A",
"Q+	c #E49C4D",
"R+	c #C79142",
"S+	c #4F402F",
"T+	c #574936",
"U+	c #CA9745",
"V+	c #D8964B",
"W+	c #E0A766",
"X+	c #D6954B",
"Y+	c #DC994C",
"Z+	c #DE994C",
"`+	c #D19F48",
" @	c #D19F47",
".@	c #433B31",
"+@	c #956832",
"@@	c #CB8F49",
"#@	c #CD904A",
"$@	c #D09E47",
"%@	c #936632",
"&@	c #6B5234",
"*@	c #6D5334",
"=@	c #CA9544",
"-@	c #C99543",
";@	c #C48D40",
">@	c #715634",
",@	c #664E32",
"'@	c #BA813B",
")@	c #DA964B",
"!@	c #634C32",
"~@	c #695033",
"{@	c #CB9A47",
"]@	c #C99846",
"^@	c #CA9845",
"/@	c #C68B48",
"(@	c #C48A48",
"_@	c #D09D62",
":@	c #C38948",
"<@	c #CD9D46",
"[@	c #CD9C47",
"}@	c #403830",
"|@	c #8D6230",
"1@	c #CD9C46",
"2@	c #C79760",
"3@	c #CC9A46",
"4@	c #8F6330",
"5@	c #6B5133",
"6@	c #483E32",
"7@	c #CA9946",
"8@	c #645239",
"9@	c #C49143",
"0@	c #7A5A35",
"a@	c #644C31",
"b@	c #B7803C",
"c@	c #F0AF65",
"d@	c #5B4831",
"e@	c #8A6036",
"f@	c #D4A24B",
"g@	c #C79847",
"h@	c #C98C47",
"i@	c #C08646",
"j@	c #C6965E",
"k@	c #BA8345",
"l@	c #C99947",
"m@	c #C99946",
"n@	c #684E32",
"o@	c #403930",
"p@	c #8D622F",
"q@	c #C99A47",
"r@	c #B88245",
"s@	c #C89846",
"t@	c #8E6230",
"u@	c #6F5333",
"v@	c #4F4333",
"w@	c #CB9C49",
"x@	c #916336",
"y@	c #9A6E3F",
"z@	c #CA9847",
"A@	c #865F36",
"B@	c #624B30",
"C@	c #B57F3C",
"D@	c #BA873F",
"E@	c #B5753B",
"F@	c #E2AA4D",
"G@	c #FFB64E",
"H@	c #E4994A",
"I@	c #C49646",
"J@	c #CE995E",
"K@	c #BF8545",
"L@	c #C69847",
"M@	c #C69848",
"N@	c #715432",
"O@	c #453C2F",
"P@	c #94652F",
"Q@	c #C69747",
"R@	c #C69646",
"S@	c #966630",
"T@	c #473C2D",
"U@	c #8C6136",
"V@	c #8F6536",
"W@	c #60492F",
"X@	c #B17D3C",
"Y@	c #B78640",
"Z@	c #694F32",
"`@	c #906336",
" #	c #FFBC4E",
".#	c #C49747",
"+#	c #463B2D",
"@#	c #C39647",
"##	c #C39748",
"$#	c #825D34",
"%#	c #544531",
"&#	c #524431",
"*#	c #A97031",
"=#	c #C39747",
"-#	c #44392C",
";#	c #AC7131",
">#	c #594730",
",#	c #866137",
"'#	c #8C6235",
")#	c #5E472E",
"!#	c #AD7A3B",
"~#	c #B2823F",
"{#	c #DDA74D",
"]#	c #FFA849",
"^#	c #C89B4B",
"/#	c #7B5A35",
"(#	c #FF9636",
"_#	c #E38A34",
":#	c #C69B4A",
"<#	c #655239",
"[#	c #E68A34",
"}#	c #815B33",
"|#	c #5C462C",
"1#	c #A9783B",
"2#	c #AD7D3E",
"3#	c #815C35",
"4#	c #E3A84D",
"5#	c #FFFF6C",
"6#	c #E1A84E",
"7#	c #FF973A",
"8#	c #FFBC39",
"9#	c #9C6837",
"0#	c #966436",
"a#	c #B37941",
"b#	c #A76B37",
"c#	c #735430",
"d#	c #5A442B",
"e#	c #A6753A",
"f#	c #A8793C",
"g#	c #AE803F",
"h#	c #5E4931",
"i#	c #A77440",
"j#	c #E2A74D",
"k#	c #FFBA37",
"l#	c #A66A36",
"m#	c #684C2D",
"n#	c #58432A",
"o#	c #7A5529",
"p#	c #A3743B",
"q#	c #A6783D",
"r#	c #5D4931",
"s#	c #9B662D",
"t#	c #60482B",
"u#	c #564129",
"v#	c #775228",
"w#	c #795328",
"x#	c #7C5529",
"y#	c #60472B",
"z#	c #483C2E",
"A#	c #FF9A32",
"B#	c #775734",
"C#	c #8B5D2A",
"D#	c #5A442A",
"E#	c #554029",
"F#	c #755027",
"G#	c #765127",
"H#	c #584229",
"I#	c #3B3227",
"J#	c #94612A",
"K#	c #BE752D",
"L#	c #906236",
"M#	c #9D6332",
"N#	c #A56B37",
"O#	c #8F5E2A",
"P#	c #7F5628",
"Q#	c #574129",
"R#	c #533F28",
"S#	c #724E26",
"T#	c #362E26",
"U#	c #7F5527",
"V#	c #925F29",
"W#	c #9A6132",
"X#	c #895A29",
"Y#	c #7D5427",
"Z#	c #775127",
"`#	c #1B1916",
" $	c #523E27",
".$	c #704D25",
"+$	c #342C25",
"@$	c #755026",
"#$	c #7E5527",
"$$	c #8E5D28",
"%$	c #A7692A",
"&$	c #684F32",
"*$	c #A36A37",
"=$	c #975F31",
"-$	c #71502B",
";$	c #8B5B28",
">$	c #785126",
",$	c #744F25",
"'$	c #714E25",
")$	c #1A1815",
"!$	c #503C26",
"~$	c #6F4C25",
"{$	c #322C24",
"]$	c #332D24",
"^$	c #744F26",
"/$	c #7A5226",
"($	c #845727",
"_$	c #4A3D2E",
":$	c #5F4A31",
"<$	c #B06D2B",
"[$	c #3C3326",
"}$	c #594228",
"|$	c #775026",
"1$	c #734E25",
"2$	c #513C26",
"3$	c #4F3C26",
"4$	c #6D4B24",
"5$	c #322B24",
"6$	c #704D24",
"7$	c #724E25",
"8$	c #564027",
"9$	c #5A4328",
"0$	c #5E4528",
"a$	c #463A2D",
"b$	c #3C3226",
"c$	c #5F4528",
"d$	c #7C5326",
"e$	c #342D25",
"f$	c #513D26",
"g$	c #6E4C24",
"h$	c #191714",
"i$	c #4E3B25",
"j$	c #312B23",
"k$	c #6C4A24",
"l$	c #4F3B25",
"m$	c #503C25",
"n$	c #523D26",
"o$	c #523E26",
"p$	c #724D25",
"q$	c #533E26",
"r$	c #543E26",
"s$	c #3D342B",
"        . . . + + @ @ + + + + + + + + @ @ + @ . . . . . .       ",
"    . . @ @ @ # # # # @ @ @ @ @ $ @ # # @ + + @ # # # . . .     ",
"  . . @ @ + + . . . @ @ @ @ @ # $ # @ @ @ + + + + @ # + . . .   ",
". . . % & * = - - ; > , % # # # $ # @ % , ' = ) ! ) ~ { ] $ . . ",
". $ % ^ ; / ( _ : < [ } , # # . $ # | 1 ; 2 3 4 5 6 7 8 ! 9 0 . ",
"a b c d e f g h i j k l m n o a b p q r s t u v w x y z A l B C ",
"D E * F G H I J K L M N O P Q D b R S T U V W X Y Y Z `  .N ..+.",
"@.#.$.%.&.*.Y =.=.X -.;.>.,.'.).).!.~.%.{.].X =.=.=.Y X ^./.(._.",
":.<.[.j }.|.=.=.=.Y X 1.2.3.4.5.6.7.8.9.0.X =.=.=.=.=.=.a.b.c.6.",
"d.e.f.g.h.=.=.=.=.=.Y X -.i.j.k.l.m.n.o.X Y =.=.|.Y Y =.p.b.q.r.",
"s.t.u.v.w.|.|.=.=.=.=.Y X x.y.z.A.B.C.X Y =.=.Y X X D.E.F.G.f.H.",
"I.J.K._ L.M.N.X X Y =.=.=.O.b.P.z.Q.R.=.=.=.Y X o.S.T.U.V.W.X.Y.",
"Z.`. +X..+++@+#+0.X Y |.=.p.b.$+%+&+*+=+Y X -+;+>+,+'+)+!+~+{+]+",
"^+/+(+_+:+<+[+}+|+1+L 2+3+F.4+5+6+7+8+9+0+a+b+c+d+e+f+g+h+`.i+^+",
"j+k+l+m+n+o+p+q+r+s+t+u+u+v+w+x+y+z+A+B+C+w+D+E+F+G+H+I+J+K+L+M+",
"N+O+P+Q+R+S+T+U+V+W+X+Y+Z+V+`+ @.@.@+@@@#@$@+@%@&@*@=@-@_ : ;@>@",
",@'@)@S+!@R.~@{@]@^@/@(@_@:@<@[@}@}@|@1@[@2@3@4@5@6@]@7@i 8@9@0@",
"a@b@c@d@e@=.X f@i g@h@i@j@k@l@m@n@o@p@q@l@r@s@t@u@v@w@f@x@y@z@A@",
"B@C@D@,@X =.E@F@W G@H@I@J@K@L@M@N@O@P@Q@R@K+I@S@T@d@U@X =.=.o.V@",
"W@X@Y@Z@Y =.=.X X `@ #.#+#@###$#%#&#*#=#@#-#_ ;#>#,#X =.=.Y E.'#",
")#!#~#&.Y =.=.=.=.X {#M.d@]#^#u@/#(#_#:#y <#d@[#I Y Y =.=.Y L }#",
"|#1#2#g 3#Y =.X =.X 4#X N.5#6#X =.7#8#9#0#a#b#X Y Y =.=.Y X x c#",
"d#e#f#g#h#i#X X =.=.j#=.X X k#X =.l#k#X X =.X X Y =.=.=.Y W g m#",
"n#o#p#q#f r#-+X X =.X =.Y X X =.=.=.X X =.=.=.X =.=.=.=.Y w s#t#",
"u#v#w#x#y#z#h A#X =.=.=.=.Y =.=.|.=.=.|.=.=.=.Y =.=.Y X B#g.C#D#",
"E#F#F#G#H#I#J#K#L#Y =.=.=.=.=.Y M#=.=.Y =.X =.=.X X N#R.U.O#P#Q#",
"R#S#S#S#R#T#U#V#h#0.X Y Y =.=.Y W#Y =.=.=.X Y Y D.B#v S+X#Y#Z#`#",
" $.$.$.$ $+$@$#$$$%$&$W *$Y Y X =$Y Y Y X b#E.M.h -$;$U#>$,$'$)$",
")$!$~$~$~${$]$^$/$($_$g.h v :$h#d@v !@w !@<$g.&+[$}$|$1$2$!$~$)$",
")$3$4$3$4$3$5$!$6$7$8$9$0$a$+#a$b$+#T@5 T@c$d$8$e$f$g$3$3$3$4$)$",
"h$h$i$i$i$i$i$j$i$k$l$m$n$o$K+p$n$q$q$r$s$n$m$l$i$i$i$i$i$i$h$h$",
"h$h$h$i$i$i$i$i$i$i$i$i$i$i$i$i$j$i$i$i$i$i$i$i$i$i$i$i$i$h$h$h$"};
