/* XPM */
static char * p_xpm[] = {
"32 32 97 2",
"  	c None",
". 	c #43462B",
"+ 	c #53482F",
"@ 	c #50472F",
"# 	c #54482F",
"$ 	c #322B1B",
"% 	c #46472B",
"& 	c #635539",
"* 	c #615539",
"= 	c #695F3D",
"- 	c #63563A",
"; 	c #2C2C23",
"> 	c #2E2715",
", 	c #45462B",
"' 	c #635639",
") 	c #4E412D",
"! 	c #4E422D",
"~ 	c #45472B",
"{ 	c #5B4A34",
"] 	c #594A34",
"^ 	c #4E472E",
"/ 	c #463D2B",
"( 	c #473E2B",
"_ 	c #48412C",
": 	c #584933",
"< 	c #574933",
"[ 	c #47412C",
"} 	c #47402C",
"| 	c #3F3A27",
"1 	c #3E3A27",
"2 	c #3E3927",
"3 	c #4B462B",
"4 	c #3F3927",
"5 	c #4A452B",
"6 	c #4C482C",
"7 	c #3E3926",
"8 	c #423C28",
"9 	c #4D492C",
"0 	c #5C4E35",
"a 	c #4C492C",
"b 	c #4B452B",
"c 	c #373523",
"d 	c #393422",
"e 	c #3F3925",
"f 	c #262418",
"g 	c #3A3523",
"h 	c #322F1F",
"i 	c #312F1F",
"j 	c #322C1E",
"k 	c #5B4B35",
"l 	c #584A34",
"m 	c #584A33",
"n 	c #5C4A34",
"o 	c #5C4B34",
"p 	c #3D3927",
"q 	c #5C4B35",
"r 	c #594A33",
"s 	c #584934",
"t 	c #5B5535",
"u 	c #595434",
"v 	c #595534",
"w 	c #5C5637",
"x 	c #4D492D",
"y 	c #463E2A",
"z 	c #413C28",
"A 	c #4A462B",
"B 	c #5C4C33",
"C 	c #3E3D26",
"D 	c #312E1E",
"E 	c #2F2D1E",
"F 	c #2F2E1E",
"G 	c #64563A",
"H 	c #312B1E",
"I 	c #4C432E",
"J 	c #6B5B3B",
"K 	c #6B5C3B",
"L 	c #493E2C",
"M 	c #695F3C",
"N 	c #5C4B37",
"O 	c #4A3E2C",
"P 	c #3D3827",
"Q 	c #4B462C",
"R 	c #4B3F2D",
"S 	c #64573B",
"T 	c #685F3C",
"U 	c #6B603E",
"V 	c #4D412C",
"W 	c #594934",
"X 	c #4D402C",
"Y 	c #50472E",
"Z 	c #645539",
"` 	c #4E412C",
" .	c #5C5635",
"..	c #5B5534",
"+.	c #5B4C33",
"@.	c #333021",
"#.	c #312E1F",
". + + @ @ @ + + + # $ % . . + + . . . . . . . . . . . . . + + . ",
"& * * = = = - - ; . > , ; - ' ' - & & & & & - & & & & & & * * & ",
"= ' ' + + ) ! ! ! ~ > ~ { ] ] ] ] ' ' ' ' ' ^ * * ' = = = ' ' ' ",
"/ / / ( ( ( ( ( _ _ $ ~ : < < [ / / / _ _ } < < < / / / / / / / ",
"| | | | 1 1 2 3 2 4 $ ~ 5 5 5 5 5 5 5 2 2 5 6 6 7 1 | | | | | 1 ",
"8 8 8 8 3 3 9 9 ; ~ > | ; | | 2 0 5 a 9 9 a 5 b 3 3 8 8 8 8 8 3 ",
"c d d c e e e e e e f e e e e e e e e e e e g c c c c c g g d c ",
"c h h h i i i i i i $ i i i i i i i i i i i h h h h h h h h h h ",
"d d d d d d d d d d d d d d d d d d d d d d d d d d d d d j d 7 ",
"( | | ( | | | | | | | | | ( ( ( ( ( ( ( ( ( ( ( ( ( ( ; | j ( ; ",
"k ] l m m l ( ( ( ( ( ( ( / n { { { k k k k { { { { { o p $ { { ",
"[ q _ _ r ( ( l s ( _ s t t < < < < [ _ _ [ < ] u v v ] w > < v ",
"5 x y y z 8 1 2 5 A 5 5 5 5 6 6 5 5 5 8 8 5 5 5 B 5 5 5 5 $ 5 5 ",
"y 9 9 y y y 3 8 | | | 8 8 5 5 y y y y y y y | | z 8 8 ; 8 > y ; ",
"C e e C C e e e e e e e e e e e C C C C C C e e e e e e e > C e ",
"D D E E E E F D D D D D D D D D D D D D D D D D F F D D D j h h ",
", , , , , , , , , , , , . G G . , % H I J K J J J - + # # # , , ",
"& & & & & & - & & & & & - * * - ; . > L ; & * * = M = * * * & = ",
"= = = = * * ^ ' ' ' ' ' ] ] ] ] ] N > L ! ! ! ! ) + + ' ' ' ' ) ",
"/ / / / < < < } _ _ / / / [ < < : . > O ( _ ( ( ( ( ( / / / / ( ",
"1 1 1 1 7 6 6 5 2 2 5 5 5 5 5 5 5 5 H O 3 P 3 1 1 1 1 1 1 1 5 1 ",
"3 3 3 Q 3 b 5 5 3 3 5 5 5 5 5 5 ; 5 H O ; 9 9 3 3 3 3 Q Q 3 5 3 ",
"g c c d c c g e e e e e e e e e e e > R e e e e e e c d d g e e ",
"F F F F F F F F F F F F F F F F F F F F F F F F F D F F F F h h ",
"- - - - - - - - - - - - - - - - - - - - - - - G ~ H - - S - - - ",
"M = = M M M M M M M M M M M M M T T T = T M T ; . > M ; U M M T ",
"@ V V @ + + + + @ @ @ W W W W ] & * ' X G Y & Z . H W @ ` Y Y ' ",
"< v : < _ _ _ _ < < < < v v < [ / < < ( / _ [ [ ~ H v <  .....< ",
"5 +.5 5 5 8 8 5 5 5 6 6 5 5 5 5 5 5 7 1 8 8 y y ~ H 5 5 3 5 5 7 ",
"5 5 5 5 5 3 3 5 5 5 5 5 5 5 5 5 5 5 3 3 3 3 b ; b H 5 ; 3 5 5 3 ",
"C e e e C C C C C C e e e e e e e e e e e C C e e H e e e e e e ",
"@.#.#.D D D i D D D E E E D D D F F E E D D i D D D D #.i j h h "};
